<svg width="138" height="24" viewBox="0 0 138 24" fill="none" xmlns="http://www.w3.org/2000/svg">
<g id="Logo / Mercury_EN">
<g id="Mercury Full Logo_Black_EN">
<path id="Shape" fill-rule="evenodd" clip-rule="evenodd" d="M84.3732 17.2769C81.853 16.4278 80.2682 13.9338 80.5698 11.2916C80.8438 8.70433 82.8677 6.64885 85.4504 6.33487C87.6828 6.04698 89.8727 7.11303 91.0232 9.04762C91.0947 9.17063 91.2258 9.24682 91.368 9.24808H92.9199C93.0557 9.24782 93.182 9.17844 93.2551 9.06398C93.3281 8.94953 93.3379 8.80574 93.281 8.68247C91.8487 5.55516 88.5417 3.73035 85.1324 4.18605C81.5756 4.63747 78.7948 7.47303 78.4129 11.0379C77.974 14.855 80.3756 18.4246 84.0766 19.4565C87.7777 20.4884 91.6798 18.6763 93.2792 15.1828C93.3376 15.0596 93.3289 14.9151 93.2562 14.7997C93.1836 14.6843 93.057 14.6141 92.9206 14.6135H91.3679C91.2257 14.6147 91.0947 14.6908 91.0233 14.8138C89.6643 17.0997 86.8934 18.1261 84.3732 17.2769ZM108.224 4.59657V13.2004C108.222 14.9394 107.52 16.6043 106.276 17.8198C105.033 19.0352 103.352 19.6987 101.613 19.6606C98.1389 19.5822 95.3003 16.5471 95.3003 13.0716V4.59657C95.3003 4.37712 95.4781 4.19922 95.6976 4.19922H97.0742C97.2937 4.19922 97.4716 4.37712 97.4716 4.59657L97.4716 13.1028C97.4716 15.3976 99.3446 17.4243 101.638 17.4892C102.797 17.5213 103.919 17.0839 104.751 16.2763C105.582 15.4687 106.051 14.3594 106.053 13.2004V4.59657C106.053 4.37712 106.231 4.19922 106.45 4.19922H107.827C107.932 4.19922 108.033 4.24108 108.108 4.3156C108.182 4.39012 108.224 4.49119 108.224 4.59657ZM119.912 13.7355C121.979 13.0255 123.318 11.0244 123.187 8.8431C123.031 6.25979 120.815 4.28092 118.227 4.28092L110.98 4.28093C110.761 4.28093 110.583 4.45883 110.583 4.67828V19.1833C110.583 19.4027 110.761 19.5806 110.98 19.5806H112.357C112.576 19.5806 112.754 19.4027 112.754 19.1833V14.0034H117.513L120.919 19.3955C120.992 19.5107 121.119 19.5806 121.255 19.5806H122.883C123.028 19.5806 123.161 19.5019 123.231 19.3751C123.301 19.2483 123.296 19.0935 123.219 18.9711L119.912 13.7355ZM112.754 11.832V6.45227H118.335C119.82 6.45341 121.023 7.65738 121.023 9.14215C121.023 10.6269 119.82 11.8309 118.335 11.832L112.754 11.832ZM76.9566 8.84313C77.0879 11.0244 75.7485 13.0255 73.6818 13.7356L76.9888 18.9711C77.0662 19.0935 77.0708 19.2483 77.0009 19.3751C76.931 19.5019 76.7977 19.5806 76.6529 19.5806H75.0247C74.8884 19.5806 74.7615 19.5107 74.6887 19.3955L71.2829 14.0034H66.5239V19.1833C66.5239 19.4027 66.346 19.5806 66.1266 19.5806H64.7499C64.5305 19.5806 64.3526 19.4027 64.3526 19.1833V4.67829C64.3526 4.45884 64.5305 4.28094 64.7499 4.28094L71.9964 4.28093C74.5844 4.28093 76.801 6.2598 76.9566 8.84313ZM66.5239 11.832V6.45227H72.1047C73.5894 6.45341 74.7925 7.65738 74.7925 9.14215C74.7925 10.6269 73.5894 11.8309 72.1047 11.832H66.5239ZM61.6098 6.05568V4.67904C61.6098 4.45959 61.4319 4.2817 61.2125 4.2817H50.6635C50.4441 4.2817 50.2662 4.4596 50.2662 4.67905V19.1825C50.2662 19.402 50.4441 19.5799 50.6635 19.5799H61.2125C61.4319 19.5799 61.6098 19.402 61.6098 19.1825V17.8059C61.6098 17.5864 61.4319 17.4085 61.2125 17.4085H52.4375V12.9392H60.2413C60.4608 12.9392 60.6387 12.7613 60.6387 12.5418V11.1652C60.6387 10.9458 60.4608 10.7679 60.2413 10.7679H52.4375V6.45303H61.2125C61.4319 6.45303 61.6098 6.27513 61.6098 6.05568ZM131.774 13.5689L137.793 4.90439C137.878 4.78292 137.888 4.62462 137.819 4.49355C137.75 4.36248 137.615 4.28032 137.467 4.28033H135.79C135.66 4.28033 135.538 4.34408 135.464 4.45098L130.688 11.3257L125.912 4.45097C125.838 4.34407 125.716 4.28033 125.586 4.28033H123.909C123.762 4.28033 123.626 4.36249 123.557 4.49356C123.489 4.62463 123.499 4.78292 123.583 4.90439L129.602 13.5687V19.1839C129.602 19.4033 129.78 19.5812 130 19.5812H131.376C131.482 19.5812 131.583 19.5394 131.657 19.4648C131.732 19.3903 131.774 19.2893 131.774 19.1839V13.5689ZM47.6404 4.67768V19.1839C47.6404 19.4033 47.4625 19.5812 47.243 19.5812H45.8664C45.6469 19.5812 45.469 19.4033 45.469 19.1839V7.76331L40.0107 14.2427C39.9352 14.3323 39.824 14.3841 39.7069 14.3841C39.5897 14.3841 39.4785 14.3323 39.403 14.2427L33.9447 7.76331V19.1839C33.9447 19.4033 33.7668 19.5812 33.5473 19.5812H32.1707C31.9512 19.5812 31.7733 19.4033 31.7733 19.1839V4.67768C31.7733 4.45823 31.9512 4.28033 32.1707 4.28033H33.6647C33.7819 4.28033 33.8931 4.33205 33.9686 4.42167L39.7069 11.2331L45.4451 4.42167C45.5206 4.33205 45.6318 4.28033 45.749 4.28033H47.243C47.4625 4.28033 47.6404 4.45823 47.6404 4.67768Z" fill="#111111"/>
<path id="Shape_2" fill-rule="evenodd" clip-rule="evenodd" d="M24.9474 9.44513C23.566 2.70206 19.7212 0.748097 17.2605 0.22886C12.4335 -0.789782 9.13436 1.80947 6.68001 3.74315L6.523 3.8668C4.19466 5.69907 -1.13994 10.1006 0.218129 16.2434C1.65001 22.7201 9.82895 25.026 16.0191 23.3179C22.6319 21.4932 26.3279 16.1834 24.9474 9.44513ZM5.87625 17.2968C4.60034 17.2968 3.56607 16.2624 3.56611 14.9865C3.56616 13.7106 4.6005 12.6763 5.8764 12.6763C7.15231 12.6763 8.18666 13.7106 8.1867 14.9865C8.18526 16.2619 7.15167 17.2954 5.87625 17.2968ZM17.7332 16.7228C18.301 17.1861 19.0455 17.3727 19.7646 17.2319C21.2193 16.9775 21.7774 15.8203 21.6853 14.7864C21.5796 13.6012 20.811 11.7346 20.0731 10.0652L19.9761 9.84531C19.1635 8.00109 18.5216 6.54449 16.9046 6.54449C15.5986 6.54449 14.7403 7.55111 14.2807 9.62204L14.2479 9.771C14.0483 10.6853 13.6328 12.5876 12.6662 12.6264C12.6551 12.6268 12.6442 12.627 12.6334 12.627C11.7651 12.627 11.407 11.2242 11.0907 9.98464L11.0855 9.96427C11.0354 9.76826 10.9863 9.57626 10.9363 9.39472C10.5342 7.93579 9.51034 6.7555 8.5017 6.58788C7.86472 6.50021 7.21919 6.67166 6.70965 7.06383C6.19615 7.44229 5.8647 8.01858 5.79578 8.65274C5.71649 9.33019 5.86793 10.5825 7.77333 11.3571C9.00331 11.8572 9.791 12.8162 9.99127 14.0579C10.1608 15.1092 10.5137 17.2968 12.7165 17.2968C14.2277 17.2968 15.0492 16.3412 15.2281 14.3753C15.3537 12.9928 15.6361 12.1241 16.0674 11.7934C16.2325 11.6643 16.4455 11.6135 16.6511 11.6541C17.3721 11.7793 17.271 12.7489 17.154 13.8713C17.1133 14.2611 17.0713 14.664 17.0579 15.0675C17.0136 15.6942 17.2632 16.3059 17.7332 16.7228Z" fill="#111111"/>
</g>
</g>
</svg>
